<?xml version="1.0" encoding="utf-8"?>
<!-- Generator: Adobe Illustrator 21.0.0, SVG Export Plug-In . SVG Version: 6.00 Build 0)  -->
<svg version="1.1" id="Layer_1" xmlns="http://www.w3.org/2000/svg" xmlns:xlink="http://www.w3.org/1999/xlink" x="0px" y="0px"
	 viewBox="0 0 129.2 140" style="enable-background:new 0 0 129.2 140;" xml:space="preserve">
<style type="text/css">
	.st0{fill:#FCBF10;}
</style>
<path class="st0" d="M128.5,77.5c-1.4,3.5-4.5,6.4-7.6,9.2c-6.3,5.7-12.8,11.1-19.7,16c-22.6,16.5-48,28.7-75,36
	c-4.8,1.3-10.4,2.3-14.4-0.6c-3.1-2.3-4.4-6.3-5.3-10.1c-3.9-15.9-5.4-32.2-6.4-48.5c-0.3-1.6,0-3.2,0.7-4.6c0.8-1,1.8-1.8,3-2.4
	c9.7-5.3,19.9-10.2,28.6-17.1c2.6-2.1,5.4-4.7,5.3-8c-0.1-2.4-1.8-4.5-3.4-6.3C27.2,33.3,16.1,23.3,8.3,16
	C22.8,22.9,39.8,34.8,51,46.3c1.7,1.7,3.4,3.7,3.7,6.1c0.3,3.3-2.2,6.1-4.7,8.4c-3.9,3.6-8,6.9-12.3,10.1c-0.9,0.5-1.6,1.3-2.2,2.2
	c-0.3,0.9-0.4,1.9-0.2,2.9c0.5,5.7,1.3,11.4,2.2,17.1c10.5-6,20.2-13.2,29.6-20.7c4.4-3.5,9.2-8,8.9-13.6c-0.1-4.1-2.9-7.5-5.6-10.6
	C53.5,28.8,33.3,12.6,10.9,0c42.2,9.3,80.8,30.6,111.3,61.2c2.4,2.4,4.8,5,6.1,8.1C129.4,71.9,129.5,74.8,128.5,77.5z"/>
</svg>
